<?xml version="1.0" encoding="utf-8"?>
<!-- Generator: Adobe Illustrator 16.0.0, SVG Export Plug-In . SVG Version: 6.00 Build 0)  -->
<!DOCTYPE svg PUBLIC "-//W3C//DTD SVG 1.1//EN" "http://www.w3.org/Graphics/SVG/1.1/DTD/svg11.dtd">
<svg version="1.1" id="Layer_1" xmlns="http://www.w3.org/2000/svg" xmlns:xlink="http://www.w3.org/1999/xlink" x="0px" y="0px"
	 width="100px" height="450px" viewBox="0 0 100 450" enable-background="new 0 0 100 450" xml:space="preserve">
<g>
	<g>
		<path fill="#5E6570" d="M26.349,205.5c-0.32-0.322-0.824-0.5-1.328-0.5c-0.451,0-1.008,0.178-1.329,0.5l-9.954,10.023
			c-0.489,0.492-0.633,1.229-0.364,1.867c0.267,0.639,0.892,1.055,1.584,1.053l3.249-0.023l-0.048,14.223
			c0.006,1.404,1.149,2.549,2.559,2.549h8.604c1.408,0,2.553-1.145,2.559-2.549l-0.047-14.221l3.248,0.023
			c0.691,0.002,1.32-0.414,1.585-1.055c0.269-0.639,0.126-1.375-0.364-1.867L26.349,205.5z"/>
		<path fill="#5E6570" d="M42.062,221.916c-1.416,0-2.572,1.146-2.572,2.562v14.314c0,0.592-0.455,1.062-1.051,1.062H11.523
			c-0.593,0-1.082-0.472-1.082-1.062v-14.314c0-1.416-1.119-2.562-2.536-2.562c-1.416,0-2.537,1.146-2.537,2.562v14.312
			c0,3.422,2.734,6.209,6.156,6.209h26.914c3.422,0,6.197-2.787,6.197-6.209v-14.312C44.635,223.062,43.478,221.916,42.062,221.916z
			"/>
	</g>
</g>
<g>
	<g>
		<path fill="#5E6570" d="M37.537,330.424c-2.313,0-4.356,1.102-5.69,2.793l-12.38-6.332c0.162-0.604,0.279-1.229,0.279-1.885
			c0-0.717-0.139-1.391-0.332-2.045l12.322-6.303c1.328,1.768,3.425,2.922,5.804,2.922c4.03,0,7.291-3.262,7.291-7.287
			c0-4.023-3.261-7.287-7.291-7.287c-4.021,0-7.286,3.264-7.286,7.287c0,0.658,0.117,1.283,0.28,1.891l-12.376,6.33
			c-1.336-1.691-3.383-2.799-5.702-2.799c-4.026,0-7.286,3.266-7.286,7.291c0,4.023,3.26,7.287,7.286,7.287
			c2.383,0,4.478-1.158,5.81-2.926l12.317,6.301c-0.191,0.652-0.333,1.334-0.333,2.051c0,4.023,3.265,7.287,7.285,7.287
			c4.031,0,7.292-3.264,7.292-7.287C44.829,333.684,41.567,330.424,37.537,330.424z"/>
	</g>
</g>
<g>
	<g>
		<path fill="#FFFFFF" d="M76.348,205.5c-0.32-0.322-0.824-0.5-1.328-0.5c-0.449,0-1.008,0.178-1.328,0.5l-9.953,10.023
			c-0.485,0.492-0.633,1.229-0.36,1.867c0.271,0.637,0.896,1.055,1.584,1.053l3.25-0.023l-0.049,14.223
			c0.006,1.404,1.146,2.549,2.56,2.549h8.604c1.406,0,2.554-1.145,2.56-2.549l-0.047-14.221l3.248,0.023
			c0.688,0.002,1.317-0.414,1.586-1.055c0.271-0.639,0.125-1.375-0.362-1.867L76.348,205.5z"/>
		<path fill="#FFFFFF" d="M92.061,221.916c-1.416,0-2.572,1.146-2.572,2.562v14.314c0,0.592-0.45,1.062-1.051,1.062H61.523
			c-0.598,0-1.082-0.472-1.082-1.062v-14.314c0-1.416-1.119-2.562-2.537-2.562c-1.416,0-2.535,1.146-2.535,2.562v14.312
			c0,3.422,2.732,6.209,6.154,6.209h26.914c3.422,0,6.192-2.787,6.192-6.209v-14.312C94.635,223.062,93.477,221.916,92.061,221.916z
			"/>
	</g>
</g>
<g>
	<g>
		<path fill="#FFFFFF" d="M87.537,330.424c-2.314,0-4.357,1.102-5.691,2.793l-12.379-6.332c0.162-0.604,0.279-1.229,0.279-1.885
			c0-0.717-0.141-1.391-0.332-2.045l12.322-6.303c1.328,1.768,3.424,2.922,5.803,2.922c4.031,0,7.291-3.262,7.291-7.287
			c0-4.023-3.26-7.287-7.291-7.287c-4.02,0-7.285,3.264-7.285,7.287c0,0.658,0.117,1.283,0.279,1.891l-12.375,6.33
			c-1.338-1.691-3.385-2.799-5.703-2.799c-4.025,0-7.285,3.266-7.285,7.291c0,4.023,3.26,7.287,7.285,7.287
			c2.383,0,4.479-1.158,5.811-2.926l12.316,6.301c-0.191,0.652-0.332,1.334-0.332,2.051c0,4.023,3.264,7.287,7.285,7.287
			c4.031,0,7.291-3.264,7.291-7.287C94.828,333.684,91.568,330.424,87.537,330.424z"/>
	</g>
</g>
<g id="Settings">
	<g>
		<path fill="#5E6570" d="M44.875,372.779c-0.063-0.563-0.719-0.984-1.286-0.984c-1.833,0-3.459-1.076-4.141-2.74
			c-0.697-1.705-0.248-3.693,1.118-4.945c0.43-0.395,0.482-1.053,0.122-1.51c-0.938-1.188-2.005-2.268-3.169-3.199
			c-0.456-0.363-1.125-0.313-1.52,0.123c-1.192,1.32-3.333,1.813-4.988,1.121c-1.722-0.727-2.808-2.471-2.702-4.344
			c0.035-0.588-0.395-1.1-0.982-1.168c-1.494-0.174-3-0.178-4.499-0.012c-0.58,0.064-1.01,0.563-0.99,1.145
			c0.065,1.854-1.034,3.568-2.739,4.271c-1.635,0.666-3.761,0.18-4.951-1.131c-0.394-0.432-1.051-0.48-1.509-0.127
			c-1.199,0.939-2.289,2.02-3.236,3.199c-0.369,0.459-0.315,1.125,0.12,1.521c1.392,1.26,1.841,3.268,1.118,4.988
			c-0.69,1.645-2.397,2.703-4.352,2.703c-0.634-0.021-1.086,0.406-1.155,0.979c-0.176,1.504-0.178,3.035-0.009,4.553
			c0.063,0.562,0.738,0.98,1.312,0.98c1.742-0.045,3.414,1.031,4.115,2.738c0.699,1.705,0.25,3.689-1.118,4.945
			c-0.428,0.393-0.482,1.051-0.122,1.508c0.93,1.186,1.996,2.26,3.164,3.201c0.458,0.367,1.125,0.314,1.522-0.121
			c1.196-1.324,3.338-1.812,4.986-1.121c1.726,0.723,2.812,2.467,2.706,4.34c-0.034,0.592,0.397,1.104,0.982,1.168
			c0.764,0.092,1.533,0.137,2.304,0.137c0.732,0,1.464-0.041,2.195-0.123c0.581-0.063,1.01-0.563,0.991-1.146
			c-0.067-1.854,1.034-3.566,2.736-4.268c1.646-0.672,3.763-0.18,4.953,1.127c0.396,0.434,1.049,0.482,1.51,0.127
			c1.196-0.938,2.284-2.014,3.235-3.197c0.369-0.457,0.317-1.125-0.119-1.521c-1.393-1.263-1.844-3.269-1.121-4.99
			c0.68-1.618,2.324-2.711,4.092-2.711l0.247,0.011c0.573,0.045,1.102-0.396,1.171-0.981
			C45.042,375.822,45.043,374.293,44.875,372.779z M25.034,381.713c-3.679,0-6.671-2.992-6.671-6.672c0-3.678,2.993-6.67,6.671-6.67
			c3.678,0,6.67,2.992,6.67,6.67C31.704,378.721,28.71,381.713,25.034,381.713z"/>
	</g>
</g>
<g>
	<path fill="#5E6570" d="M41.356,421.35H28.639v-12.709c0-2.01-1.623-3.641-3.634-3.641c-2.012,0-3.633,1.631-3.633,3.643v12.717
		H8.647c-2.012,0-3.647,1.633-3.646,3.645c0,1.004,0.405,1.928,1.063,2.584c0.659,0.66,1.568,1.078,2.573,1.078H21.37v12.695
		c0,1.008,0.399,1.916,1.058,2.572C23.087,444.592,23.995,445,25,445c2.01,0,3.637-1.631,3.637-3.641v-12.697h12.718
		c2.011,0,3.642-1.646,3.641-3.658C44.997,422.992,43.366,421.35,41.356,421.35z"/>
</g>
<g id="Settings_1_">
	<g>
		<path fill="#FFFFFF" d="M94.875,372.779c-0.063-0.563-0.721-0.984-1.286-0.984c-1.832,0-3.459-1.076-4.141-2.74
			c-0.697-1.705-0.248-3.693,1.116-4.945c0.433-0.395,0.479-1.053,0.123-1.51c-0.938-1.188-2.006-2.268-3.17-3.199
			c-0.455-0.363-1.123-0.313-1.521,0.123c-1.188,1.32-3.332,1.813-4.987,1.121c-1.722-0.727-2.808-2.471-2.698-4.344
			c0.031-0.588-0.396-1.1-0.981-1.168c-1.493-0.174-3.001-0.178-4.499-0.012c-0.58,0.064-1.01,0.563-0.99,1.145
			c0.064,1.854-1.033,3.568-2.738,4.271c-1.635,0.666-3.762,0.18-4.951-1.131c-0.394-0.432-1.051-0.48-1.51-0.127
			c-1.197,0.939-2.289,2.02-3.232,3.199c-0.368,0.459-0.314,1.125,0.117,1.521c1.395,1.26,1.845,3.268,1.117,4.988
			c-0.688,1.645-2.396,2.703-4.352,2.703c-0.635-0.021-1.086,0.406-1.154,0.979c-0.176,1.504-0.179,3.035-0.01,4.553
			c0.063,0.562,0.738,0.98,1.313,0.98c1.737-0.045,3.412,1.031,4.111,2.738c0.699,1.705,0.249,3.689-1.115,4.945
			c-0.432,0.393-0.482,1.051-0.121,1.508c0.93,1.186,1.996,2.26,3.164,3.201c0.457,0.367,1.125,0.314,1.521-0.121
			c1.196-1.324,3.338-1.812,4.985-1.121c1.728,0.723,2.812,2.467,2.705,4.34c-0.033,0.592,0.396,1.104,0.979,1.168
			c0.767,0.092,1.533,0.137,2.308,0.137c0.729,0,1.463-0.041,2.191-0.123c0.581-0.063,1.014-0.563,0.991-1.146
			c-0.068-1.854,1.03-3.566,2.731-4.268c1.646-0.672,3.767-0.18,4.953,1.127c0.396,0.434,1.051,0.482,1.51,0.127
			c1.197-0.938,2.285-2.014,3.235-3.197c0.369-0.457,0.317-1.125-0.118-1.521c-1.394-1.263-1.845-3.269-1.121-4.99
			c0.683-1.618,2.323-2.711,4.092-2.711l0.246,0.011c0.574,0.045,1.104-0.396,1.172-0.981
			C95.042,375.822,95.044,374.293,94.875,372.779z M75.032,381.713c-3.679,0-6.673-2.992-6.673-6.672c0-3.678,2.994-6.67,6.673-6.67
			s6.671,2.992,6.671,6.67C81.703,378.721,78.711,381.713,75.032,381.713z"/>
	</g>
</g>
<g>
	<path fill="#FFFFFF" d="M91.355,421.35H78.639v-12.709c0-2.01-1.623-3.641-3.635-3.641s-3.634,1.631-3.634,3.643v12.717H58.646
		c-2.013,0-3.646,1.633-3.646,3.645c0,1.004,0.404,1.928,1.063,2.584c0.66,0.66,1.566,1.078,2.574,1.078h12.73v12.695
		c0,1.008,0.398,1.916,1.06,2.572C73.087,444.592,73.994,445,75,445c2.01,0,3.637-1.631,3.637-3.641v-12.697h12.719
		c2.014,0,3.645-1.646,3.645-3.658C94.996,422.992,93.363,421.35,91.355,421.35z"/>
</g>
<g>
	<path fill="#5E6570" d="M29.139,13.946c1.85,1.16,3.146,3.122,3.382,5.4c0.755,0.352,1.591,0.555,2.479,0.555
		c3.24,0,5.867-2.626,5.867-5.866c0-3.24-2.627-5.866-5.867-5.866C31.791,8.17,29.188,10.749,29.139,13.946z M25.295,25.958
		c3.24,0,5.867-2.627,5.867-5.867c0-3.238-2.627-5.865-5.867-5.865c-3.24,0-5.868,2.627-5.868,5.865
		C19.427,23.332,22.056,25.958,25.295,25.958z M27.784,26.358h-4.978c-4.142,0-7.511,3.369-7.511,7.511v6.088l0.015,0.095
		l0.42,0.133c3.953,1.233,7.386,1.646,10.212,1.646c5.521,0,8.72-1.574,8.918-1.675l0.392-0.198h0.042V33.87
		C35.295,29.729,31.925,26.358,27.784,26.358z M37.49,20.302h-4.94c-0.054,1.977-0.897,3.757-2.232,5.036
		c3.682,1.096,6.375,4.51,6.375,8.542v1.876c4.877-0.18,7.688-1.561,7.873-1.654l0.391-0.198H45v-6.09
		C45,23.671,41.63,20.302,37.49,20.302z M15.001,19.902c1.147,0,2.215-0.335,3.12-0.905c0.287-1.875,1.292-3.515,2.729-4.631
		c0.006-0.11,0.017-0.218,0.017-0.33c0-3.24-2.627-5.866-5.866-5.866c-3.241,0-5.867,2.626-5.867,5.866
		C9.135,17.275,11.761,19.902,15.001,19.902z M20.27,25.337c-1.328-1.272-2.168-3.043-2.23-5.008
		c-0.183-0.014-0.365-0.028-0.551-0.028h-4.978C8.37,20.302,5,23.671,5,27.813v6.089l0.016,0.093l0.419,0.133
		c3.17,0.99,6,1.446,8.458,1.589v-1.838C13.895,29.848,16.587,26.434,20.27,25.337z"/>
</g>
<g>
	<path fill="#FFFFFF" d="M79.139,13.946c1.85,1.16,3.146,3.122,3.383,5.4c0.754,0.352,1.594,0.555,2.479,0.555
		c3.24,0,5.867-2.626,5.867-5.866c0-3.24-2.627-5.866-5.867-5.866C81.791,8.17,79.188,10.749,79.139,13.946z M75.295,25.958
		c3.24,0,5.867-2.627,5.867-5.867c0-3.238-2.627-5.865-5.867-5.865c-3.238,0-5.867,2.627-5.867,5.865
		C69.428,23.332,72.057,25.958,75.295,25.958z M77.783,26.358h-4.979c-4.144,0-7.513,3.369-7.513,7.511v6.088l0.017,0.096
		l0.42,0.133c3.953,1.233,7.387,1.646,10.213,1.646c5.521,0,8.721-1.574,8.918-1.675l0.393-0.197h0.042v-6.09
		C85.295,29.729,81.926,26.358,77.783,26.358z M87.49,20.302h-4.939c-0.055,1.977-0.896,3.757-2.232,5.036
		c3.685,1.095,6.375,4.51,6.375,8.542v1.877c4.877-0.18,7.688-1.562,7.873-1.654l0.395-0.198H95v-6.09
		C95,23.671,91.631,20.302,87.49,20.302z M65.002,19.902c1.146,0,2.215-0.335,3.119-0.905c0.287-1.875,1.293-3.515,2.729-4.631
		c0.006-0.11,0.02-0.218,0.02-0.33c0-3.24-2.627-5.866-5.865-5.866s-5.865,2.626-5.865,5.866
		C59.135,17.275,61.762,19.902,65.002,19.902z M70.27,25.337c-1.328-1.272-2.168-3.043-2.229-5.008
		c-0.184-0.014-0.364-0.028-0.553-0.028h-4.977c-4.145,0-7.514,3.369-7.514,7.512v6.09l0.018,0.093l0.42,0.133
		c3.17,0.989,6,1.446,8.459,1.589V33.88C63.895,29.848,66.588,26.435,70.27,25.337z"/>
</g>
<g>
	<path fill="#5E6570" d="M15.625,268.75l6.25-5h-11.86C7.245,263.75,5,266,5,268.73v17.539c0,2.75,2.243,4.979,5.015,4.979h24.97
		c2.77,0,5.015-2.25,5.015-4.979v-9.021l-5,4v5H10v-17.5L15.625,268.75L15.625,268.75z"/>
	<path fill="#5E6570" d="M32.5,263.691c-8.848,0.088-17.583,7.811-17.583,17.615c4.235-4.125,9.25-7.841,17.583-7.539v4.98l12.5-10
		l-12.5-10V263.691z"/>
</g>
<g>
	<path fill="#FFFFFF" d="M65.625,268.75l6.25-5H60.016c-2.771,0-5.016,2.25-5.016,4.98v17.539c0,2.75,2.242,4.979,5.016,4.979
		h24.971c2.771,0,5.016-2.25,5.016-4.979v-9.021l-5,4v5H60v-17.5L65.625,268.75L65.625,268.75z"/>
	<path fill="#FFFFFF" d="M82.5,263.691c-8.848,0.088-17.582,7.811-17.582,17.615c4.234-4.125,9.25-7.841,17.582-7.539v4.98l12.5-10
		l-12.5-10V263.691z"/>
</g>
<g>
	<path fill="#5E6570" d="M24.952,78.674c-5.566,0-10.076-5.407-10.076-12.071C14.876,59.939,19.386,55,24.952,55
		c5.567,0,10.082,4.939,10.082,11.603C35.034,73.268,30.52,78.674,24.952,78.674z M9.278,94.992c0,0-2.137,0.142-3.078-1.156
		c-0.509-0.7-0.155-2.12,0.193-2.913l0.853-1.942c0,0,2.356-5.269,5.038-8.323c1.647-1.873,3.608-1.446,4.875-0.837
		c0.78,0.375,1.663,1.466,2.308,2.044c0.889,0.798,2.458,1.703,5.023,1.754h1.573c2.564-0.051,4.133-0.956,5.022-1.754
		c0.644-0.579,1.501-1.704,2.276-2.091c1.163-0.582,2.934-0.94,4.538,0.884c2.683,3.054,4.808,8.419,4.808,8.419l0.873,1.904
		c0.362,0.788,0.731,2.2,0.237,2.91c-0.883,1.27-2.864,1.101-2.864,1.101H9.278z"/>
</g>
<g>
	<path fill="#FFFFFF" d="M74.952,78.674c-5.566,0-10.075-5.407-10.075-12.071C64.877,59.939,69.386,55,74.952,55
		c5.567,0,10.081,4.939,10.081,11.603C85.033,73.268,80.52,78.674,74.952,78.674z M59.277,94.992c0,0-2.137,0.142-3.078-1.156
		c-0.509-0.699-0.154-2.12,0.193-2.912l0.853-1.942c0,0,2.356-5.269,5.038-8.323c1.646-1.872,3.607-1.446,4.875-0.836
		c0.779,0.374,1.662,1.465,2.308,2.044c0.889,0.798,2.458,1.703,5.023,1.754h1.573c2.564-0.051,4.133-0.956,5.021-1.754
		c0.645-0.579,1.502-1.704,2.276-2.091c1.163-0.583,2.934-0.941,4.538,0.883c2.684,3.055,4.809,8.42,4.809,8.42l0.872,1.903
		c0.362,0.788,0.731,2.2,0.237,2.91c-0.883,1.27-2.865,1.101-2.865,1.101H59.277z"/>
</g>
<g>
	<path fill="#5E6570" d="M17.594,141.157c-3.185-2.349-5.085-6.109-5.085-10.061v-12.193c0-0.357,0.015-0.719,0.045-1.073
		c0.034-0.388-0.255-0.73-0.643-0.763c-0.389-0.033-0.73,0.255-0.764,0.644c-0.033,0.394-0.05,0.795-0.05,1.192v12.193
		c0,2.214,0.534,4.417,1.543,6.372c0.977,1.891,2.4,3.559,4.117,4.825c0.126,0.092,0.272,0.137,0.418,0.137
		c0.216,0,0.43-0.1,0.568-0.288C17.975,141.831,17.908,141.389,17.594,141.157z"/>
	<path fill="#5E6570" d="M20.888,142.896c-0.435-0.152-0.866-0.329-1.281-0.528c-0.351-0.169-0.773-0.021-0.941,0.331
		c-0.168,0.352-0.02,0.773,0.332,0.942c0.462,0.222,0.942,0.419,1.426,0.588c0.077,0.026,0.155,0.04,0.232,0.04
		c0.292,0,0.565-0.183,0.667-0.474C21.45,143.427,21.255,143.024,20.888,142.896z"/>
	<path fill="#5E6570" d="M38.197,127.889c-0.389,0-0.706,0.316-0.706,0.706v2.501c0,6.888-5.604,12.492-12.491,12.492
		c-0.487,0-0.978-0.028-1.459-0.083c-0.387-0.045-0.737,0.231-0.782,0.619c-0.045,0.387,0.232,0.737,0.619,0.783
		C23.913,144.969,24.458,145,25,145c7.666,0,13.903-6.237,13.903-13.903v-2.501C38.903,128.206,38.587,127.889,38.197,127.889z"/>
	<path fill="#5E6570" d="M25,105c-3.001,0-5.859,0.941-8.266,2.722c-2.358,1.746-4.077,4.138-4.971,6.916
		c-0.12,0.371,0.085,0.769,0.456,0.888c0.372,0.12,0.769-0.084,0.888-0.455c0.804-2.496,2.349-4.645,4.468-6.214
		c2.161-1.6,4.728-2.445,7.425-2.445c6.888,0,12.491,5.604,12.491,12.492v6.869c0,0.39,0.316,0.706,0.706,0.706
		c0.391,0,0.707-0.316,0.707-0.706v-6.869C38.903,111.237,32.666,105,25,105z"/>
	<path fill="#5E6570" d="M15.462,134.997c-0.35,0.172-0.494,0.596-0.32,0.945c0.894,1.813,2.271,3.345,3.98,4.433
		c1.758,1.117,3.791,1.708,5.878,1.708c1.58,0,3.104-0.33,4.534-0.98c0.355-0.162,0.513-0.58,0.351-0.935
		c-0.162-0.355-0.581-0.512-0.935-0.351c-1.245,0.567-2.574,0.854-3.95,0.854c-1.819,0-3.589-0.515-5.12-1.488
		c-1.492-0.947-2.692-2.284-3.472-3.865C16.235,134.969,15.812,134.825,15.462,134.997z"/>
	<path fill="#5E6570" d="M31.788,139.517c0.166,0,0.331-0.058,0.465-0.176c2.372-2.089,3.733-5.094,3.733-8.245v-12.193
		c0-2.35-0.734-4.592-2.124-6.485c-0.23-0.314-0.672-0.382-0.986-0.151c-0.315,0.23-0.383,0.672-0.151,0.986
		c1.209,1.649,1.848,3.604,1.848,5.65v12.193c0,2.746-1.186,5.364-3.253,7.186c-0.292,0.258-0.32,0.704-0.063,0.996
		C31.397,139.437,31.591,139.517,31.788,139.517z"/>
	<path fill="#5E6570" d="M30.44,111.028c0.123,0.085,0.262,0.126,0.401,0.126c0.224,0,0.443-0.106,0.581-0.304
		c0.222-0.32,0.142-0.76-0.178-0.982c-0.534-0.37-1.104-0.694-1.694-0.964c-0.354-0.162-0.773-0.006-0.936,0.349
		c-0.161,0.355-0.006,0.773,0.349,0.936C29.478,110.423,29.974,110.706,30.44,111.028z"/>
	<path fill="#5E6570" d="M26.837,108.071c-0.603-0.102-1.222-0.154-1.837-0.154c-6.058,0-10.986,4.928-10.986,10.986v11.856
		c0,0.391,0.316,0.707,0.706,0.707c0.39,0,0.707-0.316,0.707-0.707v-11.856c0-5.279,4.294-9.574,9.573-9.574
		c0.538,0,1.077,0.045,1.603,0.134c0.385,0.065,0.749-0.194,0.813-0.579C27.481,108.5,27.222,108.136,26.837,108.071z"/>
	<path fill="#5E6570" d="M18.313,114.394c-0.219,0.323-0.134,0.762,0.189,0.98c0.323,0.219,0.762,0.134,0.98-0.189
		c1.244-1.84,3.308-2.938,5.519-2.938c3.67,0,6.656,2.986,6.656,6.657v7.904c0,0.39,0.315,0.706,0.706,0.706
		c0.39,0,0.706-0.316,0.706-0.706v-7.904c0-4.449-3.62-8.068-8.068-8.068C22.319,110.835,19.819,112.166,18.313,114.394z"/>
	<path fill="#5E6570" d="M17.638,121.302c0.39,0,0.706-0.316,0.706-0.706v-1.692c0-0.39-0.316-0.706-0.706-0.706
		c-0.389,0-0.706,0.316-0.706,0.706v1.692C16.932,120.985,17.249,121.302,17.638,121.302z"/>
	<path fill="#5E6570" d="M16.932,131.097c0,2.92,1.588,5.621,4.145,7.049c0.109,0.061,0.228,0.09,0.343,0.09
		c0.248,0,0.487-0.13,0.617-0.362c0.19-0.34,0.069-0.771-0.272-0.959c-2.111-1.18-3.422-3.408-3.422-5.817v-7.678
		c0-0.39-0.316-0.706-0.706-0.706c-0.389,0-0.706,0.316-0.706,0.706V131.097z"/>
	<path fill="#5E6570" d="M33.069,131.097v-1.278c0-0.39-0.316-0.707-0.707-0.707c-0.39,0-0.706,0.316-0.706,0.707v1.278
		c0,3.67-2.986,6.656-6.656,6.656c-0.536,0-1.07-0.064-1.586-0.19c-0.379-0.092-0.761,0.139-0.853,0.517
		c-0.094,0.379,0.138,0.761,0.517,0.854c0.626,0.154,1.272,0.232,1.922,0.232C29.448,139.166,33.069,135.545,33.069,131.097z"/>
	<path fill="#5E6570" d="M30.151,118.978c0-2.828-2.267-5.172-5.052-5.225c-1.395-0.026-2.708,0.498-3.706,1.475
		c-0.995,0.978-1.544,2.283-1.544,3.676v12.193c0,0.39,0.316,0.707,0.706,0.707c0.391,0,0.706-0.316,0.706-0.707v-12.193
		c0-1.011,0.398-1.958,1.122-2.668c0.724-0.709,1.682-1.089,2.69-1.07c2.021,0.038,3.667,1.749,3.667,3.813v6.701
		c0,0.389,0.315,0.706,0.706,0.706c0.389,0,0.706-0.316,0.706-0.706V118.978z"/>
	<path fill="#5E6570" d="M22.767,131.914c0,2.036,1.656,3.692,3.691,3.692c2.036,0,3.692-1.656,3.692-3.692v-3.413
		c0-0.391-0.316-0.706-0.706-0.706c-0.391,0-0.706,0.315-0.706,0.706v3.413c0,1.258-1.023,2.281-2.281,2.281
		c-1.257,0-2.28-1.023-2.28-2.281v-6.048c0-0.389-0.316-0.706-0.706-0.706s-0.706,0.316-0.706,0.706V131.914z"/>
	<path fill="#5E6570" d="M26.528,132.349c0.389,0,0.705-0.316,0.705-0.706v-12.696c0-1.217-0.932-2.216-2.122-2.275
		c-0.618-0.03-1.204,0.188-1.651,0.613c-0.44,0.42-0.694,1.01-0.694,1.618v3.951c0,0.39,0.316,0.706,0.706,0.706
		s0.706-0.316,0.706-0.706v-3.951c0-0.227,0.09-0.438,0.256-0.595c0.164-0.157,0.379-0.237,0.607-0.226
		c0.43,0.021,0.78,0.409,0.78,0.865v12.696C25.822,132.033,26.138,132.349,26.528,132.349z"/>
</g>
<g>
	<path fill="#FFFFFF" d="M67.594,141.157c-3.185-2.349-5.085-6.108-5.085-10.061v-12.193c0-0.357,0.015-0.719,0.045-1.073
		c0.034-0.388-0.255-0.73-0.643-0.763c-0.39-0.033-0.73,0.255-0.765,0.644c-0.032,0.394-0.05,0.795-0.05,1.192v12.193
		c0,2.214,0.534,4.417,1.543,6.372c0.977,1.891,2.4,3.559,4.116,4.825c0.127,0.092,0.273,0.138,0.419,0.138
		c0.216,0,0.43-0.101,0.568-0.288C67.975,141.83,67.908,141.389,67.594,141.157z"/>
	<path fill="#FFFFFF" d="M70.888,142.896c-0.435-0.151-0.866-0.329-1.281-0.528c-0.351-0.169-0.772-0.021-0.94,0.331
		c-0.169,0.352-0.021,0.773,0.331,0.942c0.462,0.222,0.942,0.42,1.427,0.588c0.076,0.027,0.154,0.04,0.231,0.04
		c0.292,0,0.565-0.183,0.667-0.474C71.45,143.427,71.256,143.024,70.888,142.896z"/>
	<path fill="#FFFFFF" d="M88.197,127.889c-0.39,0-0.706,0.316-0.706,0.706v2.501c0,6.888-5.604,12.491-12.491,12.491
		c-0.487,0-0.979-0.027-1.459-0.083c-0.388-0.046-0.738,0.231-0.782,0.618c-0.046,0.388,0.231,0.738,0.619,0.783
		C73.912,144.969,74.458,145,75,145c7.666,0,13.903-6.236,13.903-13.903v-2.501C88.903,128.206,88.588,127.889,88.197,127.889z"/>
	<path fill="#FFFFFF" d="M75,105c-3.002,0-5.859,0.941-8.266,2.722c-2.357,1.746-4.076,4.138-4.971,6.916
		c-0.12,0.371,0.085,0.769,0.455,0.888c0.372,0.12,0.769-0.084,0.889-0.455c0.804-2.496,2.349-4.645,4.468-6.214
		c2.161-1.6,4.728-2.445,7.425-2.445c6.888,0,12.491,5.604,12.491,12.492v6.869c0,0.39,0.316,0.706,0.706,0.706
		c0.391,0,0.706-0.316,0.706-0.706v-6.869C88.903,111.237,82.666,105,75,105z"/>
	<path fill="#FFFFFF" d="M65.463,134.997c-0.351,0.173-0.494,0.596-0.32,0.945c0.894,1.813,2.27,3.345,3.979,4.433
		c1.758,1.117,3.79,1.708,5.878,1.708c1.58,0,3.104-0.33,4.534-0.98c0.355-0.162,0.513-0.58,0.351-0.935
		c-0.161-0.355-0.58-0.512-0.935-0.351c-1.245,0.567-2.573,0.854-3.95,0.854c-1.818,0-3.589-0.515-5.12-1.488
		c-1.491-0.947-2.692-2.284-3.472-3.864C66.235,134.969,65.812,134.825,65.463,134.997z"/>
	<path fill="#FFFFFF" d="M81.787,139.518c0.166,0,0.332-0.059,0.466-0.176c2.372-2.09,3.733-5.095,3.733-8.245v-12.193
		c0-2.35-0.734-4.592-2.124-6.485c-0.23-0.314-0.672-0.382-0.985-0.151c-0.315,0.23-0.383,0.672-0.152,0.986
		c1.21,1.649,1.849,3.604,1.849,5.65v12.193c0,2.745-1.186,5.364-3.253,7.186c-0.292,0.258-0.32,0.704-0.063,0.996
		C81.396,139.437,81.592,139.518,81.787,139.518z"/>
	<path fill="#FFFFFF" d="M80.439,111.028c0.123,0.085,0.263,0.126,0.401,0.126c0.224,0,0.443-0.106,0.581-0.304
		c0.222-0.32,0.143-0.76-0.178-0.982c-0.535-0.37-1.105-0.694-1.694-0.964c-0.354-0.162-0.773-0.006-0.936,0.349
		c-0.161,0.355-0.006,0.773,0.349,0.936C79.478,110.423,79.974,110.706,80.439,111.028z"/>
	<path fill="#FFFFFF" d="M76.838,108.071c-0.604-0.102-1.223-0.154-1.838-0.154c-6.058,0-10.986,4.928-10.986,10.986v11.856
		c0,0.391,0.316,0.706,0.707,0.706c0.39,0,0.706-0.315,0.706-0.706v-11.856c0-5.279,4.294-9.574,9.573-9.574
		c0.537,0,1.076,0.045,1.603,0.134c0.385,0.065,0.749-0.194,0.813-0.579C77.481,108.5,77.222,108.136,76.838,108.071z"/>
	<path fill="#FFFFFF" d="M68.313,114.394c-0.219,0.323-0.135,0.762,0.189,0.98c0.322,0.219,0.762,0.134,0.979-0.189
		c1.243-1.84,3.308-2.938,5.519-2.938c3.67,0,6.656,2.986,6.656,6.657v7.904c0,0.39,0.315,0.706,0.706,0.706
		c0.39,0,0.706-0.316,0.706-0.706v-7.904c0-4.449-3.62-8.068-8.068-8.068C72.318,110.835,69.818,112.166,68.313,114.394z"/>
	<path fill="#FFFFFF" d="M67.638,121.302c0.39,0,0.706-0.316,0.706-0.706v-1.692c0-0.39-0.316-0.706-0.706-0.706
		s-0.706,0.316-0.706,0.706v1.692C66.932,120.985,67.248,121.302,67.638,121.302z"/>
	<path fill="#FFFFFF" d="M66.932,131.097c0,2.921,1.589,5.62,4.146,7.05c0.108,0.061,0.228,0.09,0.343,0.09
		c0.248,0,0.488-0.131,0.617-0.363c0.191-0.34,0.069-0.77-0.271-0.959c-2.111-1.18-3.422-3.408-3.422-5.817v-7.678
		c0-0.39-0.316-0.706-0.706-0.706s-0.706,0.316-0.706,0.706V131.097z"/>
	<path fill="#FFFFFF" d="M83.068,131.097v-1.278c0-0.39-0.316-0.706-0.706-0.706s-0.706,0.316-0.706,0.706v1.278
		c0,3.671-2.986,6.656-6.656,6.656c-0.536,0-1.07-0.063-1.586-0.19c-0.379-0.092-0.761,0.139-0.854,0.518
		c-0.094,0.379,0.139,0.761,0.518,0.854c0.626,0.154,1.272,0.232,1.922,0.232C79.448,139.166,83.068,135.545,83.068,131.097z"/>
	<path fill="#FFFFFF" d="M80.15,118.978c0-2.828-2.266-5.172-5.051-5.225c-1.395-0.026-2.709,0.498-3.706,1.475
		c-0.995,0.978-1.544,2.283-1.544,3.676v12.193c0,0.39,0.316,0.706,0.705,0.706c0.391,0,0.706-0.316,0.706-0.706v-12.193
		c0-1.011,0.398-1.958,1.122-2.668c0.724-0.709,1.682-1.089,2.689-1.07c2.021,0.038,3.667,1.749,3.667,3.813v6.701
		c0,0.389,0.315,0.706,0.706,0.706c0.389,0,0.705-0.316,0.705-0.706V118.978z"/>
	<path fill="#FFFFFF" d="M72.768,131.914c0,2.036,1.656,3.692,3.691,3.692s3.691-1.656,3.691-3.692v-3.413
		c0-0.391-0.316-0.706-0.705-0.706c-0.391,0-0.706,0.315-0.706,0.706v3.413c0,1.258-1.023,2.281-2.28,2.281
		c-1.258,0-2.281-1.023-2.281-2.281v-6.048c0-0.389-0.315-0.706-0.705-0.706s-0.705,0.316-0.705,0.706V131.914z"/>
	<path fill="#FFFFFF" d="M76.528,132.349c0.389,0,0.705-0.315,0.705-0.706v-12.695c0-1.217-0.932-2.216-2.122-2.275
		c-0.617-0.03-1.203,0.188-1.65,0.613c-0.44,0.42-0.693,1.01-0.693,1.618v3.951c0,0.39,0.315,0.706,0.705,0.706
		s0.705-0.316,0.705-0.706v-3.951c0-0.227,0.091-0.438,0.257-0.595c0.164-0.157,0.38-0.237,0.607-0.226
		c0.43,0.021,0.78,0.409,0.78,0.865v12.695C75.822,132.033,76.138,132.349,76.528,132.349z"/>
</g>
</svg>
