<?xml version="1.0" encoding="utf-8"?>
<!-- Generator: Adobe Illustrator 16.0.0, SVG Export Plug-In . SVG Version: 6.00 Build 0)  -->
<!DOCTYPE svg PUBLIC "-//W3C//DTD SVG 1.1//EN" "http://www.w3.org/Graphics/SVG/1.1/DTD/svg11.dtd">
<svg version="1.1" id="Layer_1" xmlns="http://www.w3.org/2000/svg" xmlns:xlink="http://www.w3.org/1999/xlink" x="0px" y="0px"
	 width="50px" height="100px" viewBox="0 0 50 100" enable-background="new 0 0 50 100" xml:space="preserve">
<g>
	<path fill="#5F6670" d="M24.947,29.133c-6.262,0-11.336-6.082-11.336-13.58c0-7.495,5.074-13.053,11.336-13.053
		c6.264,0,11.341,5.558,11.341,13.053C36.288,23.051,31.211,29.133,24.947,29.133z M7.314,47.491c0,0-2.405,0.159-3.464-1.302
		c-0.572-0.787-0.174-2.385,0.217-3.276l0.958-2.185c0,0,2.651-5.929,5.668-9.363c1.854-2.105,4.058-1.626,5.484-0.941
		c0.878,0.422,1.871,1.65,2.597,2.301c1,0.897,2.765,1.916,5.651,1.976h1.771c2.884-0.06,4.648-1.077,5.647-1.976
		c0.726-0.649,1.69-1.916,2.562-2.353c1.31-0.654,3.302-1.058,5.104,0.993c3.021,3.437,5.408,9.472,5.408,9.472l0.983,2.144
		c0.404,0.884,0.822,2.475,0.267,3.272c-0.993,1.429-3.224,1.238-3.224,1.238H7.314z"/>
</g>
<g>
	<path fill="#5F6570" d="M16.668,93.177c-3.583-2.642-5.721-6.873-5.721-11.319V68.141c0-0.401,0.017-0.809,0.051-1.207
		c0.038-0.438-0.288-0.821-0.724-0.859c-0.438-0.036-0.821,0.288-0.86,0.726c-0.037,0.444-0.056,0.895-0.056,1.341v13.717
		c0,2.492,0.6,4.971,1.736,7.169c1.099,2.128,2.7,4.005,4.631,5.429c0.142,0.103,0.306,0.153,0.47,0.153
		c0.243,0,0.484-0.112,0.639-0.323C17.097,93.935,17.021,93.438,16.668,93.177z"/>
	<path fill="#5F6570" d="M20.374,95.134c-0.489-0.172-0.975-0.372-1.441-0.595c-0.395-0.189-0.87-0.023-1.059,0.373
		c-0.189,0.395-0.022,0.869,0.374,1.059c0.52,0.25,1.06,0.473,1.604,0.661c0.087,0.03,0.175,0.046,0.262,0.046
		c0.329,0,0.635-0.206,0.75-0.533C21.006,95.73,20.787,95.276,20.374,95.134z"/>
	<path fill="#5F6570" d="M39.847,78.25c-0.438,0-0.794,0.355-0.794,0.795v2.813c0,7.75-6.306,14.054-14.053,14.054
		c-0.548,0-1.101-0.03-1.642-0.093c-0.436-0.051-0.829,0.26-0.88,0.696c-0.05,0.437,0.262,0.829,0.697,0.881
		C23.777,97.465,24.39,97.5,25,97.5c8.624,0,15.64-7.016,15.64-15.641v-2.814C40.64,78.606,40.285,78.25,39.847,78.25z"/>
	<path fill="#5F6570" d="M25,52.5c-3.376,0-6.591,1.059-9.299,3.063c-2.653,1.964-4.586,4.654-5.592,7.781
		c-0.135,0.416,0.096,0.864,0.513,0.997c0.418,0.137,0.865-0.095,0.999-0.512c0.905-2.807,2.643-5.226,5.027-6.989
		c2.431-1.801,5.319-2.751,8.353-2.751c7.75,0,14.053,6.304,14.053,14.054v7.728c0,0.438,0.354,0.793,0.794,0.793
		s0.796-0.354,0.796-0.793v-7.728C40.64,59.516,33.624,52.5,25,52.5z"/>
	<path fill="#5F6570" d="M14.27,86.247c-0.394,0.193-0.556,0.67-0.36,1.062c1.006,2.041,2.555,3.765,4.478,4.988
		c1.978,1.257,4.265,1.922,6.613,1.922c1.777,0,3.491-0.372,5.101-1.103c0.399-0.183,0.577-0.652,0.395-1.052
		c-0.183-0.4-0.652-0.576-1.051-0.396C28.043,92.307,26.548,92.63,25,92.63c-2.046,0-4.038-0.579-5.76-1.673
		c-1.678-1.066-3.028-2.571-3.906-4.349C15.139,86.215,14.664,86.054,14.27,86.247z"/>
	<path fill="#5F6570" d="M32.637,91.332c0.187,0,0.372-0.065,0.522-0.198c2.669-2.351,4.2-5.73,4.2-9.276V68.141
		c0-2.644-0.826-5.166-2.391-7.295c-0.258-0.354-0.756-0.43-1.108-0.17c-0.354,0.259-0.431,0.756-0.17,1.108
		c1.359,1.856,2.079,4.056,2.079,6.356v13.717c0,3.09-1.335,6.035-3.659,8.085c-0.33,0.29-0.36,0.792-0.071,1.12
		C32.196,91.242,32.415,91.332,32.637,91.332z"/>
	<path fill="#5F6570" d="M31.119,59.281c0.139,0.096,0.296,0.143,0.452,0.143c0.251,0,0.498-0.12,0.653-0.343
		c0.25-0.36,0.16-0.854-0.2-1.104c-0.601-0.416-1.241-0.781-1.906-1.084c-0.398-0.183-0.869-0.007-1.054,0.392
		c-0.18,0.399-0.006,0.869,0.394,1.054C30.038,58.601,30.597,58.919,31.119,59.281z"/>
	<path fill="#5F6570" d="M27.066,55.954c-0.678-0.114-1.375-0.173-2.066-0.173c-6.815,0-12.359,5.545-12.359,12.359v13.338
		c0,0.44,0.355,0.796,0.794,0.796c0.438,0,0.795-0.355,0.795-0.796V68.141c0-5.938,4.831-10.771,10.77-10.771
		c0.605,0,1.212,0.051,1.804,0.15c0.433,0.073,0.842-0.218,0.914-0.651C27.79,56.438,27.5,56.027,27.066,55.954z"/>
	<path fill="#5F6570" d="M17.477,63.068c-0.247,0.363-0.15,0.857,0.212,1.103c0.364,0.246,0.857,0.15,1.103-0.212
		c1.4-2.07,3.722-3.306,6.209-3.306c4.129,0,7.488,3.358,7.488,7.489v8.893c0,0.438,0.354,0.793,0.794,0.793
		c0.438,0,0.794-0.355,0.794-0.793v-8.893c0-5.006-4.072-9.077-9.076-9.077C21.983,59.064,19.171,60.562,17.477,63.068z"/>
	<path fill="#5F6570" d="M16.718,70.84c0.438,0,0.794-0.355,0.794-0.795v-1.902c0-0.439-0.355-0.795-0.794-0.795
		c-0.438,0-0.794,0.355-0.794,0.795v1.902C15.923,70.482,16.28,70.84,16.718,70.84z"/>
	<path fill="#5F6570" d="M15.923,81.859c0,3.285,1.787,6.323,4.664,7.931c0.122,0.067,0.256,0.101,0.385,0.101
		c0.279,0,0.548-0.146,0.694-0.407c0.214-0.383,0.078-0.867-0.306-1.079c-2.375-1.328-3.85-3.834-3.85-6.545v-8.637
		c0-0.439-0.355-0.795-0.794-0.795c-0.438,0-0.794,0.355-0.794,0.795L15.923,81.859L15.923,81.859z"/>
	<path fill="#5F6570" d="M34.077,81.859v-1.438c0-0.438-0.355-0.796-0.796-0.796c-0.438,0-0.793,0.356-0.793,0.796v1.438
		c0,4.129-3.359,7.487-7.488,7.487c-0.603,0-1.204-0.071-1.784-0.214c-0.426-0.104-0.856,0.157-0.96,0.582
		c-0.106,0.427,0.156,0.856,0.582,0.961c0.704,0.173,1.431,0.261,2.162,0.261C30.004,90.937,34.077,86.863,34.077,81.859z"/>
	<path fill="#5F6570" d="M30.794,68.226c0-3.182-2.55-5.818-5.683-5.879c-1.569-0.029-3.046,0.561-4.169,1.66
		c-1.119,1.1-1.737,2.567-1.737,4.136v13.717c0,0.438,0.355,0.796,0.794,0.796c0.439,0,0.794-0.356,0.794-0.796V68.143
		c0-1.139,0.448-2.204,1.262-3.002c0.814-0.797,1.892-1.226,3.027-1.204c2.273,0.043,4.125,1.968,4.125,4.289v7.539
		c0,0.438,0.354,0.796,0.793,0.796c0.438,0,0.795-0.356,0.795-0.796v-7.539H30.794z"/>
	<path fill="#5F6570" d="M22.488,82.778c0,2.291,1.863,4.153,4.153,4.153s4.153-1.862,4.153-4.153v-3.84
		c0-0.44-0.355-0.794-0.795-0.794s-0.794,0.354-0.794,0.794v3.84c0,1.415-1.151,2.566-2.566,2.566c-1.414,0-2.565-1.151-2.565-2.566
		v-6.804c0-0.438-0.355-0.795-0.794-0.795s-0.794,0.356-0.794,0.795v6.804H22.488z"/>
	<path fill="#5F6570" d="M26.718,83.269c0.438,0,0.794-0.356,0.794-0.796V68.19c0-1.368-1.049-2.493-2.387-2.56
		c-0.695-0.033-1.354,0.211-1.857,0.689c-0.495,0.473-0.781,1.137-0.781,1.82v4.444c0,0.439,0.355,0.796,0.794,0.796
		c0.438,0,0.794-0.356,0.794-0.796v-4.444c0-0.256,0.101-0.492,0.288-0.668c0.185-0.179,0.426-0.269,0.683-0.256
		c0.484,0.024,0.877,0.461,0.877,0.974v14.282C25.924,82.912,26.281,83.269,26.718,83.269z"/>
</g>
</svg>
